<svg width="30" height="30" viewBox="0 0 30 30" fill="none" xmlns="http://www.w3.org/2000/svg">
<path d="M15 0C6.71323 0 0 6.71419 0 15C0 23.2858 6.71419 30 15 30C23.2868 30 30 23.2858 30 15C30 6.71419 23.2858 0 15 0ZM22.3674 10.2765L19.9055 21.8777C19.7235 22.7003 19.2339 22.8997 18.5506 22.5126L14.8006 19.7487L12.9919 21.4906C12.7926 21.69 12.6232 21.8594 12.2361 21.8594L12.5023 18.0426L19.4516 11.7639C19.7545 11.4977 19.3848 11.3468 18.9852 11.6129L10.3965 17.0197L6.69484 15.8642C5.89065 15.6106 5.87226 15.06 6.86419 14.6729L21.3261 9.09581C21.9977 8.85387 22.5842 9.25935 22.3665 10.2755L22.3674 10.2765Z" fill="white"/>
</svg>
