<svg width="23" height="23" viewBox="0 0 23 23" fill="none" xmlns="http://www.w3.org/2000/svg">
<path d="M22.8091 6.20212C22.6668 5.99345 22.4759 5.88911 22.2363 5.88911H6.98535L5.81738 1.78528C5.71257 1.41431 5.57031 1.09745 5.39062 0.834677C5.21094 0.571909 5.02002 0.386425 4.81787 0.278226C4.61572 0.170027 4.43978 0.0966062 4.29004 0.0579637C4.1403 0.0193212 3.99056 0 3.84082 0H0.763672C0.56901 0 0.404297 0.0695565 0.269531 0.208669C0.134766 0.347782 0.0673828 0.525538 0.0673828 0.741935C0.0673828 0.865591 0.0973307 0.985383 0.157227 1.10131C0.217122 1.21724 0.303223 1.30612 0.415527 1.36794C0.527832 1.42977 0.64388 1.46069 0.763672 1.46069H3.84082C3.90072 1.46069 3.95687 1.46841 4.00928 1.48387C4.06169 1.49933 4.13281 1.56502 4.22266 1.68095C4.3125 1.79687 4.38737 1.97077 4.44727 2.20262L8.42285 17.2732C8.4528 17.3659 8.50146 17.4548 8.56885 17.5398C8.63623 17.6248 8.71484 17.6905 8.80469 17.7369C8.89453 17.7833 8.99186 17.8065 9.09668 17.8065H18.7998C18.9495 17.8065 19.0881 17.7601 19.2153 17.6673C19.3426 17.5746 19.4287 17.4587 19.4736 17.3196L22.9102 6.88609C22.985 6.63878 22.9513 6.41079 22.8091 6.20212ZM18.3057 16.3226H9.6582L7.36719 7.37298H21.2031L18.3057 16.3226ZM16.8906 19.2903C16.3965 19.2903 15.9735 19.4719 15.6216 19.8352C15.2697 20.1984 15.0938 20.6351 15.0938 21.1452C15.0938 21.6552 15.2697 22.0919 15.6216 22.4551C15.9735 22.8184 16.3965 23 16.8906 23C17.3848 23 17.8078 22.8184 18.1597 22.4551C18.5116 22.0919 18.6875 21.6552 18.6875 21.1452C18.6875 20.6351 18.5116 20.1984 18.1597 19.8352C17.8078 19.4719 17.3848 19.2903 16.8906 19.2903ZM10.4219 19.2903C10.0924 19.2903 9.78923 19.3753 9.51221 19.5454C9.23519 19.7154 9.01807 19.9395 8.86084 20.2177C8.70361 20.496 8.625 20.8051 8.625 21.1452C8.625 21.6552 8.80094 22.0919 9.15283 22.4551C9.50472 22.8184 9.92773 23 10.4219 23C10.916 23 11.339 22.8184 11.6909 22.4551C12.0428 22.0919 12.2188 21.6552 12.2188 21.1452C12.2188 21.0215 12.2075 20.8978 12.1851 20.7742C12.1626 20.6505 12.1289 20.5346 12.084 20.4264C12.0391 20.3182 11.9829 20.2139 11.9155 20.1134C11.8481 20.0129 11.7733 19.9202 11.6909 19.8352C11.6086 19.7502 11.5187 19.6729 11.4214 19.6033C11.3241 19.5338 11.223 19.4758 11.1182 19.4294C11.0133 19.3831 10.901 19.3483 10.7812 19.3251C10.6615 19.3019 10.5417 19.2903 10.4219 19.2903Z" fill="black"/>
</svg>
